# xmcd
#
# Track frame offsets: 
#        150
#        18707
#        35920
#        67852
#        95786
#        115076
#
# Disc length: 2082 seconds
#
# Revision: 0
# Processed by: cddbd v1.5.2PL0 Copyright (c) Steve Scherf et al.
# Submitted via: ExactAudioCopy v1.3
#
DISCID=4f082006
DTITLE=Angel Forrest - 'Live' Love At The Palace [Disk 1]
DYEAR=2014
DGENRE=Blues Rock
TTITLE0=How You Do
TTITLE1=Mother Tongue Blues
TTITLE2=Walking Blues
TTITLE3=Holy Man
TTITLE4=Come Alive
TTITLE5=Move On
EXTD=
EXTT0=
EXTT1=
EXTT2=
EXTT3=
EXTT4=
EXTT5=
PLAYORDER=
